<svg xmlns="http://www.w3.org/2000/svg" viewBox="0 0 511.989 511.989" width="512" height="512"><circle cx="255.994" cy="255.994" r="255.994" data-original="#27536B" data-old_color="#27536B" fill="#3f51b5"/><path d="M391.37 292.817c-48.362 48.362-126.774 48.362-175.136 0s-48.362-126.774 0-175.136c10.084-10.084 21.476-18.057 33.627-23.935-39.798 1.061-79.279 16.774-109.653 47.147-62.946 62.946-62.946 165.003 0 227.949s165.003 62.946 227.949 0c30.374-30.374 46.086-69.854 47.147-109.653-5.877 12.152-13.85 23.544-23.934 33.628z" data-original="#FCD57E" class="active-path" fill="#fcd57e"/><path data-original="#FFFFFF" fill="#fff" d="M355.804 153.568l5.709 51.649 5.711-51.649 51.649-5.709-51.649-5.711-5.711-51.649-5.709 51.649-51.65 5.711zM112.365 410.626l4.09 36.997 4.09-36.997 36.997-4.09-36.997-4.09-4.09-36.997-4.09 36.997-36.997 4.09zM241.038 253.39l7.327-7.328 7.327 7.327-7.327 7.327zM416.78 198.56l7.327-7.327 7.327 7.327-7.327 7.327zM447.866 289.602l7.327-7.327 7.327 7.327-7.327 7.327zM73.92 129.716l7.327-7.327 7.327 7.327-7.327 7.327zM344.17 426.613l7.328-7.326 7.327 7.326-7.327 7.327zM115.44 103.065l7.327-7.327 7.327 7.327-7.327 7.326z"/></svg>